<?xml version="1.0" encoding="UTF-8" standalone="no"?>
<!DOCTYPE svg PUBLIC "-//W3C//DTD SVG 1.1//EN" "http://www.w3.org/Graphics/SVG/1.1/DTD/svg11.dtd">
<svg width="100%" height="100%" viewBox="0 0 175 189" version="1.1" xmlns="http://www.w3.org/2000/svg" xmlns:xlink="http://www.w3.org/1999/xlink" xml:space="preserve" xmlns:serif="http://www.serif.com/" style="fill-rule:evenodd;clip-rule:evenodd;stroke-linecap:round;stroke-miterlimit:2;">
    <g transform="matrix(1,0,0,1,-4130.67,-3125.8)">
        <g transform="matrix(1,0,0,1,3706.13,2890.62)">
            <g id="Crest">
                <g transform="matrix(0.740212,0,0,0.684968,112.752,-1866.53)">
                    <path d="M641.782,3085.32L436.957,3085.32L436.957,3215.56C436.957,3276.68 482.808,3326.23 539.368,3326.23L539.371,3326.23C595.931,3326.23 641.782,3276.68 641.782,3215.56L641.782,3085.32Z" style="stroke:black;stroke-width:7.01px;"/>
                </g>
                <g>
                    <g transform="matrix(1,0,0,1,-4.25312,-2890.62)">
                        <path d="M440.446,3226.66C440.446,3268.52 474.386,3302.46 516.252,3302.46L516.253,3302.46L516.253,3212.95L440.446,3212.95L440.446,3226.66Z"/>
                    </g>
                    <g>
                        <g transform="matrix(0.748661,0,0,0.748661,-42.5786,141.688)">
                            <g transform="matrix(0.53579,0,0,0.53579,-337.316,-1424.32)">
                                <circle cx="1944.09" cy="3171.3" r="15.597" style="fill:none;stroke:white;stroke-width:10.39px;stroke-linecap:square;"/>
                            </g>
                            <g transform="matrix(0.53579,0,0,0.53579,-320.602,-1424.32)">
                                <circle cx="1944.09" cy="3171.3" r="15.597" style="fill:none;stroke:white;stroke-width:10.39px;stroke-linecap:square;"/>
                            </g>
                            <g transform="matrix(0.53579,0,0,0.53579,-328.959,-1438.8)">
                                <circle cx="1944.09" cy="3171.3" r="15.597" style="fill:none;stroke:white;stroke-width:10.39px;stroke-linecap:square;"/>
                            </g>
                            <g transform="matrix(1.06445,0,0,0.653427,-1373.32,-1797.38)">
                                <path d="M1959.69,3171.3L1959.69,3261.96" style="fill:none;stroke:white;stroke-width:6.3px;stroke-linecap:square;"/>
                            </g>
                            <g transform="matrix(0.897045,0,0,0.71641,-1045.26,-1998.59)">
                                <path d="M1959.69,3241.71L1969.63,3241.71L1969.63,3256.04L1975.29,3256.04" style="fill:none;stroke:white;stroke-width:6.86px;stroke-linecap:square;"/>
                            </g>
                            <g transform="matrix(0.897045,2.76852e-17,-2.21104e-17,-0.535866,-1045.26,2060.92)">
                                <path d="M1959.69,3241.71L1969.63,3241.71L1969.63,3256.04L1975.29,3256.04" style="fill:none;stroke:white;stroke-width:7.53px;stroke-linecap:square;"/>
                            </g>
                            <g transform="matrix(0.538171,0,0,1,-341.982,-2891.69)">
                                <path d="M1951.33,3185.57L1968.05,3185.57" style="fill:none;stroke:white;stroke-width:6.93px;stroke-linecap:square;"/>
                            </g>
                        </g>
                        <g>
                            <g transform="matrix(1,0,0,1,-1247.02,-2890.62)">
                                <path d="M1694.61,3221.97C1694.61,3221.97 1689.59,3247.32 1704.33,3244.19C1719.08,3241.06 1711.93,3230.54 1706.76,3231.84C1701.6,3233.14 1702.94,3237.88 1702.94,3237.88" style="fill:none;stroke:white;stroke-width:4.17px;stroke-linecap:square;stroke-linejoin:bevel;"/>
                            </g>
                            <g transform="matrix(1,0,0,1,-1247.02,-2891.62)">
                                <path d="M1700.77,3228.54C1700.77,3228.54 1710.27,3219.62 1718.1,3229.78" style="fill:none;stroke:white;stroke-width:4.17px;stroke-linecap:square;stroke-linejoin:bevel;"/>
                            </g>
                            <g transform="matrix(1,0,0,1,-1247.02,-2890.62)">
                                <path d="M1693.79,3248.88C1699.66,3255.58 1713.91,3249.53 1718.42,3245.32C1718.42,3245.32 1701.2,3262.82 1706.54,3268.63" style="fill:none;stroke:white;stroke-width:4.17px;stroke-linecap:square;stroke-linejoin:bevel;"/>
                            </g>
                            <g transform="matrix(1,0,0,1,-1247.02,-2890.62)">
                                <path d="M1722.48,3252.96C1722.48,3252.96 1709.78,3262.73 1715.49,3268.16C1721.19,3273.59 1727.91,3268.98 1722.76,3264.15" style="fill:none;stroke:white;stroke-width:4.17px;stroke-linecap:square;stroke-linejoin:bevel;"/>
                            </g>
                            <g transform="matrix(1,0,0,1,-1247.02,-2890.62)">
                                <path d="M1711.37,3273.6C1711.37,3273.6 1718.17,3280.62 1729.14,3277.47" style="fill:none;stroke:white;stroke-width:4.17px;stroke-linecap:square;stroke-linejoin:bevel;"/>
                            </g>
                            <g transform="matrix(1,0,0,1,-1247.02,-2890.62)">
                                <path d="M1724.48,3285.61C1724.48,3285.61 1735.61,3292.37 1749.12,3294.49" style="fill:none;stroke:white;stroke-width:4.17px;stroke-linecap:square;stroke-linejoin:bevel;"/>
                            </g>
                            <g transform="matrix(1,0,0,1,-1247.02,-2890.62)">
                                <path d="M1718.1,3219.78C1719.83,3220.4 1721.99,3221.93 1723,3223.49" style="fill:none;stroke:white;stroke-width:4.17px;stroke-linecap:square;stroke-linejoin:bevel;"/>
                            </g>
                        </g>
                    </g>
                </g>
                <g>
                    <g transform="matrix(1,0,0,1,-1247.02,-2890.62)">
                        <path d="M1834.83,3212.95L1759.02,3212.95L1759.02,3302.46L1759.02,3302.46C1800.89,3302.46 1834.83,3268.52 1834.83,3226.66L1834.83,3212.95Z" style="fill:white;"/>
                    </g>
                    <g transform="matrix(1.12153,0,0,1.12153,-100.273,-334.544)">
                        <path d="M560.561,620.699C560.561,615.67 562.278,611.386 565.713,607.845C569.147,604.305 573.224,602.535 577.944,602.535C579.409,602.535 580.792,602.804 582.094,603.341C583.397,603.878 584.349,604.379 584.951,604.843C585.553,605.306 586.286,605.97 587.148,606.832L589.663,603.146C589.923,602.739 590.188,602.535 590.456,602.535C590.725,602.535 590.884,602.613 590.932,602.767C590.981,602.922 591.006,603.243 591.006,603.732L591.006,615.597C591.006,616.134 590.973,616.468 590.908,616.598C590.843,616.728 590.607,616.793 590.2,616.793C589.874,616.793 589.675,616.744 589.602,616.647C589.529,616.549 589.459,616.313 589.394,615.939C588.89,612.342 587.641,609.469 585.647,607.321C583.653,605.172 581.273,604.098 578.506,604.098C577.708,604.098 576.866,604.187 575.979,604.366C575.092,604.546 574.009,604.977 572.732,605.66C571.454,606.344 570.323,607.251 569.338,608.383C568.353,609.514 567.503,611.15 566.787,613.29C566.071,615.43 565.713,617.916 565.713,620.748C565.713,623.548 566.071,626.022 566.787,628.17C567.503,630.319 568.353,631.95 569.338,633.065C570.323,634.18 571.454,635.079 572.732,635.763C574.009,636.447 575.1,636.882 576.003,637.069C576.907,637.256 577.757,637.35 578.554,637.35C581.419,637.35 583.95,636.333 586.147,634.298C588.344,632.264 589.549,629.529 589.761,626.095C589.793,625.932 589.809,625.814 589.809,625.741C589.809,625.668 589.826,625.59 589.858,625.509C589.891,625.428 589.948,625.371 590.029,625.338C590.11,625.306 590.216,625.289 590.346,625.289C590.786,625.289 591.006,625.574 591.006,626.144C591.006,629.318 589.789,632.235 587.356,634.896C584.922,637.557 581.785,638.888 577.944,638.888C573.208,638.888 569.127,637.13 565.7,633.615C562.274,630.099 560.561,625.794 560.561,620.699Z" style="fill-rule:nonzero;stroke:black;stroke-width:1.49px;stroke-linecap:square;"/>
                    </g>
                </g>
                <g>
                    <g transform="matrix(1,0,0,1,-4.25312,-2890.62)">
                        <rect x="516.253" y="3137.44" width="75.807" height="75.51"/>
                    </g>
                    <g>
                        <g transform="matrix(1,0,0,1,-1247.02,-2890.62)">
                            <path d="M1796.75,3190.4C1796.75,3190.4 1794.73,3189.3 1791.03,3189.3L1774.47,3189.3L1774.47,3151.52L1791.03,3151.52C1795.04,3151.52 1796.75,3155.7 1796.75,3155.7C1796.75,3155.7 1798.46,3151.52 1802.48,3151.52L1819.03,3151.52L1819.03,3189.3L1802.48,3189.3C1798.78,3189.3 1796.75,3190.4 1796.75,3190.4Z" style="fill:none;stroke:white;stroke-width:4.17px;stroke-linecap:butt;"/>
                        </g>
                        <g transform="matrix(0.205265,0,0,0.205265,161.968,-379.784)">
                            <circle cx="1944.09" cy="3171.3" r="15.597" style="fill:none;stroke:white;stroke-width:16.24px;stroke-linecap:square;"/>
                        </g>
                        <g transform="matrix(0.5,0,0,1,-355.731,-2871.84)">
                            <path d="M1780.58,3159.7L1787.57,3159.7" style="fill:none;stroke:white;stroke-width:4.22px;stroke-linecap:square;stroke-linejoin:bevel;"/>
                        </g>
                        <g transform="matrix(1,0,0,1,-1247.02,-2889.27)">
                            <path d="M1772.79,3194.55L1772.38,3193.75L1772.38,3197.92L1791.03,3197.92C1791.96,3197.92 1792.76,3198.08 1793.41,3198.3C1794.63,3198.71 1795.29,3199.31 1795.29,3199.31L1796.75,3200.74L1798.21,3199.31C1798.21,3199.31 1798.88,3198.71 1800.1,3198.3C1800.75,3198.08 1801.54,3197.92 1802.48,3197.92L1819.03,3197.92L1819.08,3197.87C1819.5,3197.41 1822.78,3193.75 1818.87,3193.75L1802.48,3193.75C1801.02,3193.75 1799.78,3194.01 1798.77,3194.35C1797.96,3194.62 1797.28,3194.95 1796.75,3195.26C1796.22,3194.95 1795.55,3194.62 1794.73,3194.35C1793.72,3194.01 1792.48,3193.75 1791.03,3193.75L1774.63,3193.75C1773.46,3193.75 1772.94,3194.08 1772.79,3194.55Z" style="fill:white;"/>
                        </g>
                        <g transform="matrix(1,0,0,1,-1247.02,-2890.62)">
                            <path d="M1796.75,3155.7L1796.75,3191.92" style="fill:none;stroke:white;stroke-width:4.17px;stroke-linecap:butt;"/>
                        </g>
                        <g transform="matrix(1,0,0,1,-1246.02,-2890.62)">
                            <path d="M1780.58,3159.7C1780.58,3159.7 1782.99,3157.6 1784.08,3159.7C1785.17,3161.81 1787.57,3159.7 1787.57,3159.7" style="fill:none;stroke:white;stroke-width:3.33px;stroke-linecap:square;stroke-linejoin:bevel;"/>
                        </g>
                        <g transform="matrix(1,0,0,1,-1246.02,-2884.36)">
                            <path d="M1780.58,3159.7L1787.57,3159.7" style="fill:none;stroke:white;stroke-width:3.33px;stroke-linecap:square;stroke-linejoin:bevel;"/>
                        </g>
                        <g transform="matrix(1,0,0,1,-1223.05,-2878.1)">
                            <path d="M1780.58,3159.7L1787.57,3159.7" style="fill:none;stroke:white;stroke-width:3.33px;stroke-linecap:square;stroke-linejoin:bevel;"/>
                        </g>
                        <g transform="matrix(1,0,0,1,-1246.02,-2878.1)">
                            <path d="M1780.58,3159.7L1787.57,3159.7" style="fill:none;stroke:white;stroke-width:3.33px;stroke-linecap:square;stroke-linejoin:bevel;"/>
                        </g>
                        <g transform="matrix(1,0,0,1,-1223.05,-2871.84)">
                            <path d="M1780.58,3159.7L1787.57,3159.7" style="fill:none;stroke:white;stroke-width:3.33px;stroke-linecap:square;stroke-linejoin:bevel;"/>
                        </g>
                    </g>
                </g>
                <g>
                    <g transform="matrix(1,0,0,1,-1247.02,-2890.62)">
                        <rect x="1683.22" y="3137.44" width="75.807" height="75.51" style="fill:white;"/>
                    </g>
                    <g transform="matrix(1,0,0,1,0,1)">
                        <g transform="matrix(0.279144,0,0,0.279144,48.1768,138.859)">
                            <path d="M1442.2,515.81C1442.2,498.631 1444.37,485.361 1448.71,476.001C1454.76,462.075 1464.92,455.112 1479.19,455.112C1482.21,455.112 1485.31,455.526 1488.48,456.353C1491.64,457.181 1495.24,459.164 1499.26,462.303C1503.29,465.442 1506.53,469.58 1508.98,474.717C1513.66,484.648 1516,498.345 1516,515.81C1516,532.875 1513.83,546.059 1509.49,555.362C1503.16,568.945 1493,575.737 1479.02,575.737C1473.77,575.737 1468.47,574.396 1463.13,571.713C1457.8,569.031 1453.45,564.465 1450.08,558.015C1444.83,548.37 1442.2,534.301 1442.2,515.81ZM1458.64,550.653C1460.07,558.244 1462.74,563.68 1466.64,566.962C1470.56,570.243 1474.68,571.884 1479.02,571.884C1483.7,571.884 1487.99,570.129 1491.9,566.619C1495.81,563.109 1498.36,557.559 1499.56,549.968C1500.88,542.491 1501.5,530.392 1501.45,513.669C1501.45,505.559 1501.3,498.662 1501.02,492.978M1500.23,482.977C1500.08,481.699 1499.91,480.543 1499.73,479.511C1498.19,471.92 1495.38,466.598 1491.3,463.545C1487.22,460.491 1483.12,458.964 1479.02,458.964C1477.48,458.964 1475.89,459.193 1474.27,459.649C1472.64,460.106 1470.65,460.991 1468.32,462.303C1465.98,463.616 1463.91,465.899 1462.11,469.152C1460.31,472.405 1458.98,476.486 1458.13,481.394C1457.21,487.73 1456.76,498.488 1456.76,513.669C1456.76,524.284 1456.99,532.962 1457.44,539.732L1500.23,482.977Z" style="stroke:black;stroke-width:6.72px;stroke-linecap:square;stroke-miterlimit:1.5;"/>
                        </g>
                        <g transform="matrix(0.978843,0,0,0.978843,-46.8498,-325.798)">
                            <path d="M532.021,637.789L532.021,636.251C534.625,636.251 536.758,635.25 538.418,633.248C538.418,633.248 539.98,631.263 543.105,627.291L538.149,620.846C536.977,619.349 536.135,618.466 535.622,618.197C535.11,617.928 533.991,617.794 532.265,617.794L532.265,616.232C533.633,616.329 535.211,616.378 537.002,616.378C537.995,616.378 539.801,616.329 542.422,616.232L542.422,617.794C541.25,617.859 540.664,618.274 540.664,619.039C540.664,619.3 540.81,619.601 541.103,619.943L545.01,624.996L548.11,621.09C548.615,620.488 548.867,619.902 548.867,619.332C548.867,618.405 548.379,617.892 547.402,617.794L547.402,616.232C548.704,616.329 550.307,616.378 552.212,616.378C553.644,616.378 555.011,616.329 556.313,616.232L556.313,617.794C553.774,617.859 551.788,618.722 550.356,620.382C549.721,621.082 548.191,622.97 545.766,626.046L552.456,634.689C552.993,635.389 553.563,635.824 554.165,635.995C554.767,636.166 555.784,636.251 557.217,636.251L557.217,637.789C555.719,637.692 554.116,637.643 552.407,637.643C551.805,637.643 550.006,637.692 547.011,637.789L547.011,636.251C547.614,636.219 548.065,636.068 548.366,635.8C548.668,635.531 548.818,635.258 548.818,634.982C548.818,634.851 548.468,634.306 547.768,633.346L543.96,628.341C541.421,631.336 539.988,633.183 539.663,633.883C539.533,634.176 539.468,634.445 539.468,634.689C539.468,635.584 539.948,636.105 540.908,636.251L540.908,637.789C538.515,637.692 536.937,637.643 536.172,637.643C534.707,637.643 533.323,637.692 532.021,637.789Z" style="fill-rule:nonzero;stroke:black;stroke-width:1.92px;stroke-linecap:square;"/>
                        </g>
                    </g>
                </g>
                <g>
                    <g transform="matrix(1,0,0,0.925367,-4.25312,-2644.15)">
                        <path d="M516.253,3302.46L516.253,3124.13" style="fill:none;stroke:black;stroke-width:3.46px;"/>
                    </g>
                    <g transform="matrix(1,0,0,1,-4.25312,-2890.97)">
                        <path d="M440.446,3213.3L592.06,3213.3" style="fill:none;stroke:black;stroke-width:3.33px;"/>
                    </g>
                    <g transform="matrix(0.740212,0,0,0.684968,112.752,-1866.53)">
                        <path d="M641.782,3085.32L436.957,3085.32L436.957,3215.56C436.957,3276.68 482.808,3326.23 539.368,3326.23L539.371,3326.23C595.931,3326.23 641.782,3276.68 641.782,3215.56L641.782,3085.32Z" style="fill:none;stroke:black;stroke-width:14.61px;"/>
                    </g>
                </g>
            </g>
        </g>
    </g>
</svg>
